<?xml version="1.0" encoding="utf-8"?>
<!DOCTYPE svg PUBLIC "-//W3C//DTD SVG 1.0//EN" "http://www.w3.org/TR/2001/REC-SVG-20010904/DTD/svg10.dtd">
<svg version="1.0" id="Layer_1" xmlns:svg="http://www.w3.org/2000/svg"
	 xmlns="http://www.w3.org/2000/svg" xmlns:xlink="http://www.w3.org/1999/xlink" x="0px" y="0px" width="800px" height="600px"
	 viewBox="-93 6.5 800 600" enable-background="new -93 6.5 800 600" xml:space="preserve">
<g>
	<linearGradient id="SVGID_1_" gradientUnits="userSpaceOnUse" x1="-31.1172" y1="297.6362" x2="244.7686" y2="297.6362">
		<stop  offset="0" style="stop-color:#5A9FD4"/>
		<stop  offset="0.1054" style="stop-color:#5CA0D1"/>
		<stop  offset="0.19" style="stop-color:#61A4C7"/>
		<stop  offset="0.2675" style="stop-color:#6AABB6"/>
		<stop  offset="0.3406" style="stop-color:#76B59E"/>
		<stop  offset="0.4108" style="stop-color:#86C17F"/>
		<stop  offset="0.4778" style="stop-color:#99D05A"/>
		<stop  offset="0.5" style="stop-color:#A0D64C"/>
		<stop  offset="0.5242" style="stop-color:#ABD850"/>
		<stop  offset="0.6048" style="stop-color:#C9DE5D"/>
		<stop  offset="0.6897" style="stop-color:#E1E267"/>
		<stop  offset="0.7795" style="stop-color:#F2E56E"/>
		<stop  offset="0.8777" style="stop-color:#FCE772"/>
		<stop  offset="1" style="stop-color:#FFE873"/>
	</linearGradient>
	<path fill="url(#SVGID_1_)" d="M32.995,378.84c-21.539-9.373-39.688-22.846-51.506-40.643l0,0
		c-7.836-11.816-12.632-25.811-12.606-40.561l0,0c-0.025-14.75,4.771-28.745,12.606-40.562l0,0
		c7.848-11.871,18.602-21.802,31.207-29.895l0,0c25.251-16.115,58.13-25.25,94.13-25.301l0,0c27,0.013,52.244,5.217,73.832,14.552
		l0,0c21.538,9.375,39.687,22.846,51.504,40.644l0,0c7.836,11.818,12.633,25.812,12.606,40.562l0,0
		c0.026,14.75-4.771,28.744-12.606,40.561l0,0c-7.847,11.871-18.602,21.803-31.205,29.895l0,0
		c-25.251,16.115-58.131,25.248-94.131,25.301l0,0C79.825,393.379,54.582,388.176,32.995,378.84L32.995,378.84z M49.191,253.824
		c-15.991,6.882-27.658,16.431-33.688,25.689l0,0c-4.062,6.22-5.847,12.056-5.872,18.124l0,0c0.025,6.066,1.81,11.904,5.872,18.123
		l0,0c4.051,6.168,10.515,12.479,19.186,18.029l0,0c17.302,11.166,43.206,18.91,72.138,18.857l0,0
		c21.698,0.012,41.695-4.275,57.635-11.197l0,0c15.991-6.883,27.657-16.432,33.688-25.689l0,0
		c4.062-6.219,5.847-12.057,5.873-18.123l0,0c-0.026-6.067-1.811-11.903-5.873-18.124l0,0c-4.052-6.167-10.514-12.48-19.186-18.029
		l0,0c-17.3-11.167-43.205-18.908-72.137-18.855l0,0c-0.037,0-0.073,0-0.109,0l0,0C85.062,242.628,65.104,246.913,49.191,253.824
		L49.191,253.824z"/>
	<linearGradient id="SVGID_2_" gradientUnits="userSpaceOnUse" x1="12.0591" y1="345.9609" x2="144.5421" y2="381.485">
		<stop  offset="0" style="stop-color:#5A9FD4"/>
		<stop  offset="0.0869" style="stop-color:#6CADB1"/>
		<stop  offset="0.1845" style="stop-color:#7CBA92"/>
		<stop  offset="0.2915" style="stop-color:#89C478"/>
		<stop  offset="0.4095" style="stop-color:#93CC65"/>
		<stop  offset="0.5442" style="stop-color:#9BD257"/>
		<stop  offset="0.7102" style="stop-color:#9FD54E"/>
		<stop  offset="1" style="stop-color:#A0D64C"/>
	</linearGradient>
	<path fill="url(#SVGID_2_)" d="M25.411,327.047l11.534,10.221c6.601-3.4,14.621-5.295,23.22-5.131
		c9.979-5.857,22.635-8.883,36.143-7.799c16.508,1.324,30.79,8.494,39.903,18.699c0.714,0.043,1.428,0.086,2.147,0.145
		c28.149,2.258,49.98,16.402,48.763,31.596c-1.219,15.189-25.026,25.676-53.176,23.418c-0.446-0.037-0.886-0.084-1.329-0.125
		c-10.652,9.082-26.283,14.195-43.252,12.834c-15.301-1.229-28.687-7.482-37.821-16.518c-14.459-3.066-25.836-11.789-30.093-22.549
		l-13.175-6.76"/>
	<ellipse cx="132.191" cy="382.584" rx="8.15" ry="5.178"/>
	<path d="M141.594,357.348c0,2.859-3.647,5.176-8.149,5.176c-4.501,0-8.149-2.316-8.149-5.176c0-2.861,3.648-5.178,8.149-5.178
		C137.946,352.17,141.594,354.486,141.594,357.348z"/>
	<g>
		<path d="M306.233,251.012c11.438-2.352,23.258-3.529,35.461-3.529c27.634,0,41.453,13.654,41.453,40.96
			c0,30.153-13.901,45.228-41.699,45.228c-6.895,0-13.572-1.367-20.029-4.104v35.295h-15.186V251.012z M321.419,316.104
			c5.965,2.955,12.613,4.432,19.947,4.432c17.895,0,26.842-10.751,26.842-32.257c0-18.77-8.895-28.155-26.678-28.155
			c-7.662,0-14.365,0.657-20.111,1.97V316.104z"/>
		<path d="M388.888,247.482h16.498l24.379,67.309l25.2-67.309h16.089l-35.789,88.732c-6.349,15.65-15.87,25.418-28.565,29.305
			l-5.827-10.754c9.631-4.215,16.635-11.082,21.014-20.604L388.888,247.482z"/>
		<path d="M484.06,251.012c11.438-2.352,23.258-3.529,35.461-3.529c27.634,0,41.452,13.654,41.452,40.96
			c0,30.153-13.9,45.228-41.698,45.228c-6.896,0-13.572-1.367-20.029-4.104v35.295H484.06V251.012z M499.245,316.104
			c5.965,2.955,12.613,4.432,19.947,4.432c17.894,0,26.841-10.751,26.841-32.257c0-18.77-8.894-28.155-26.677-28.155
			c-7.662,0-14.365,0.657-20.111,1.97V316.104z"/>
		<path d="M566.714,247.482h16.498l24.379,67.309l25.2-67.309h16.089l-35.789,88.732c-6.349,15.65-15.87,25.418-28.564,29.305
			l-5.828-10.754c9.63-4.215,16.634-11.082,21.013-20.604L566.714,247.482z"/>
	</g>
	<path d="M248.529,297.581c0,0,0-0.006,0-0.065c-0.002-15.531-5.058-30.19-13.232-42.519
		c-12.329-18.559-31.111-32.426-53.138-42.014c-22.11-9.559-47.85-14.85-75.332-14.864c-36.638,0.056-70.194,9.331-96.154,25.891
		C-2.298,232.335-13.459,242.614-21.649,255c-8.174,12.325-13.229,26.989-13.23,42.521c0,0.044,0,0.083,0.001,0.116
		c-0.001,0.062-0.001,0.1-0.001,0.114c0.002,15.533,5.058,30.194,13.233,42.524c10.011,15.068,24.282,27.039,41.085,36.141
		c5.512,10.391,16.658,18.236,30.251,21.41c9.79,9.291,23.658,15.561,39.374,16.826c1.921,0.152,3.827,0.229,5.714,0.229
		c15.063-0.004,28.863-4.797,39.035-12.922c2.611,0.203,5.186,0.303,7.713,0.303c12.867-0.01,24.506-2.549,33.376-7.102
		c4.431-2.285,8.187-5.086,10.993-8.443c2.049-2.447,3.573-5.234,4.381-8.244c4.407-2.223,8.651-4.625,12.705-7.211
		c12.968-8.326,24.13-18.602,32.32-30.99c8.17-12.324,13.227-26.984,13.229-42.515c-0.001-0.02,0-0.061,0-0.119v-0.029
		L248.529,297.581z M241.008,297.756c0.001,13.88-4.528,27.119-11.98,38.361c-7.508,11.359-17.854,20.945-30.103,28.809
		c-2.696,1.721-5.489,3.357-8.364,4.914c-0.64-3.246-2.087-6.332-4.118-9.133c-4.212-5.793-10.859-10.598-19.069-14.266
		c-0.831-0.369-1.683-0.725-2.546-1.07c0.375-0.158,0.76-0.311,1.131-0.471c16.528-7.135,28.735-16.988,35.343-27.088
		c4.381-6.674,6.471-13.352,6.481-20.159c-0.011-6.842-2.101-13.519-6.484-20.198c-4.422-6.718-11.262-13.346-20.308-19.141
		c-17.994-11.593-44.379-19.432-73.872-19.45c-0.09,0.001-0.199,0-0.328,0.001h-0.074c-22.147,0.005-42.571,4.369-59.013,11.501
		c-16.537,7.139-28.745,16.992-35.353,27.092c-4.381,6.674-6.471,13.352-6.481,20.161c0.011,6.839,2.101,13.518,6.484,20.195
		c2.677,4.068,6.256,8.098,10.661,11.936l-0.099,0.109l13.461,11.93l2.291-1.18c5.764-2.973,12.836-4.727,20.475-4.725
		c0.318,0,0.632,0.002,0.94,0.01l1.065,0.021l0.919-0.539c8.021-4.709,18.016-7.5,28.832-7.498c1.685,0,3.388,0.068,5.106,0.205
		c15.603,1.244,29.01,8.047,37.399,17.457l1.035,1.16l1.553,0.09c0.707,0.041,1.392,0.084,2.062,0.137
		c13.167,1.047,24.856,4.844,32.99,9.934c4.069,2.539,7.232,5.389,9.302,8.254c2.075,2.879,3.057,5.693,3.059,8.445
		c0,0.303-0.011,0.607-0.035,0.92c-0.213,2.576-1.266,5.02-3.254,7.416c-2.966,3.58-8.121,6.877-14.82,9.182
		c-6.691,2.312-14.878,3.66-23.771,3.658c-2.38,0-4.812-0.096-7.28-0.293c-0.378-0.031-0.802-0.076-1.277-0.121l-1.582-0.148
		l-1.209,1.031c-8.744,7.465-21.379,12.158-35.399,12.152c-1.687,0-3.393-0.068-5.114-0.205
		C75.205,406,62.63,400.072,54.188,391.711l-0.785-0.775l-1.08-0.229c-13.467-2.834-23.761-10.988-27.376-20.256l-0.521-1.314
		l-14.435-7.404l-1.713,3.338l1.555-3.449c-10.122-7.193-18.698-15.691-25.212-25.506c-7.452-11.24-11.98-24.481-11.979-38.364
		c0-0.053,0-0.053,0-0.053v-0.177c-0.001-13.883,4.525-27.126,11.98-38.367c7.508-11.359,17.855-20.945,30.104-28.808
		c24.533-15.666,56.733-24.661,92.104-24.707c26.512,0.012,51.259,5.129,72.335,14.245c21.04,9.157,38.555,22.233,49.862,39.271
		c7.453,11.241,11.98,24.48,11.979,38.36c0.001,0.02,0,0.081,0.001,0.178V297.756z M39.152,332.129
		c-0.825-0.492-1.638-0.99-2.424-1.5c-8.31-5.314-14.396-11.311-18.082-16.935c-3.735-5.753-5.215-10.748-5.254-16.073
		c0.039-5.295,1.519-10.29,5.259-16.051c5.457-8.423,16.582-17.665,32.025-24.292l-1.486-3.455l1.499,3.45
		c15.381-6.685,34.87-10.888,56.026-10.884h0.11c0.101-0.001,0.187-0.001,0.292-0.001c28.136-0.016,53.328,7.599,69.804,18.256
		c8.31,5.312,14.395,11.312,18.083,16.935c3.735,5.753,5.215,10.748,5.255,16.075c-0.04,5.292-1.52,10.288-5.261,16.05
		c-5.456,8.422-16.581,17.664-32.025,24.291c-3.101,1.348-6.375,2.586-9.79,3.715c-4.598-1.092-9.464-1.871-14.525-2.277
		c-0.237-0.02-0.473-0.037-0.706-0.053c-9.85-10.373-24.547-17.436-41.344-18.791c-1.92-0.154-3.825-0.229-5.709-0.229
		c-11.708,0.002-22.648,2.906-31.722,8.006c-0.012,0-0.023,0-0.035,0C51.968,328.365,45.17,329.703,39.152,332.129z"/>
	<path opacity="0.3" d="M5.589,299.29c0,0-10.558-78.988,100.615-78.988c79.615,0,87.765,29.15,100.93,71.779
		c0,0-29.15-50.465-100.615-50.36C6.225,241.868,5.589,299.29,5.589,299.29z"/>
	<path opacity="0.2" d="M174.849,351.635c0,0,8.56,4.053,26.085-5.564c16.994-9.324,23.116,6.492,31.589-11.361
		c0,0,6.27,10.029-45.401,40.068C187.121,374.777,179.237,356.023,174.849,351.635z"/>
	<path opacity="0.3" d="M179.864,359.783c0,0-21.314,23.822-58.301,12.539c0,0-33.853,22.566-63.316-1.254
		c0,0-44.431-17.789-48.191-5.252c0,0,25.38,26.812,41.487,28.57c0,0,38.841,33.82,81.073,3.684c0,0,42.232,0.58,50.383-13.211
		C191.148,371.068,179.864,359.783,179.864,359.783z"/>
</g>
</svg>
