<?xml version="1.0" encoding="UTF-8" standalone="no"?>
<svg
   xmlns:dc="http://purl.org/dc/elements/1.1/"
   xmlns:cc="http://creativecommons.org/ns#"
   xmlns:rdf="http://www.w3.org/1999/02/22-rdf-syntax-ns#"
   xmlns:svg="http://www.w3.org/2000/svg"
   xmlns="http://www.w3.org/2000/svg"
   xmlns:xlink="http://www.w3.org/1999/xlink"
   xmlns:sodipodi="http://sodipodi.sourceforge.net/DTD/sodipodi-0.dtd"
   xmlns:inkscape="http://www.inkscape.org/namespaces/inkscape"
   width="707"
   height="806"
   id="svg2"
   sodipodi:version="0.32"
   inkscape:version="0.46"
   sodipodi:docname="picture.svg"
   inkscape:output_extension="org.inkscape.output.svg.inkscape">
  <metadata
     id="metadata448">
    <rdf:RDF>
      <cc:Work
         rdf:about="">
        <dc:format>image/svg+xml</dc:format>
        <dc:type
           rdf:resource="http://purl.org/dc/dcmitype/StillImage" />
      </cc:Work>
    </rdf:RDF>
  </metadata>
  <sodipodi:namedview
     inkscape:window-height="695"
     inkscape:window-width="956"
     inkscape:pageshadow="2"
     inkscape:pageopacity="0.0"
     guidetolerance="10.0"
     gridtolerance="10.0"
     objecttolerance="10.0"
     borderopacity="1.0"
     bordercolor="#666666"
     pagecolor="#ffffff"
     id="base"
     showgrid="false"
     inkscape:zoom="1.6352941"
     inkscape:cx="182.47303"
     inkscape:cy="177.77228"
     inkscape:window-x="0"
     inkscape:window-y="0"
     inkscape:current-layer="svg2" />
  <defs
     id="defs4">
    <inkscape:perspective
       sodipodi:type="inkscape:persp3d"
       inkscape:vp_x="0 : 403 : 1"
       inkscape:vp_y="0 : 1000 : 0"
       inkscape:vp_z="707 : 403 : 1"
       inkscape:persp3d-origin="353.5 : 268.66667 : 1"
       id="perspective450" />
    <linearGradient
       inkscape:collect="always"
       xlink:href="#g25"
       id="linearGradient3599"
       x1="68.712234"
       y1="-10.683454"
       x2="72.5"
       y2="31"
       gradientUnits="userSpaceOnUse" />
    <linearGradient
       inkscape:collect="always"
       xlink:href="#g19"
       id="linearGradient3607"
       x1="87.669067"
       y1="-11.690648"
       x2="84.56115"
       y2="51"
       gradientUnits="userSpaceOnUse" />
  </defs>
  <rect
     stroke="#000000"
     stroke-width="1"
     fill="#ffffff"
     x="0"
     y="0"
     width="706"
     height="805"
     id="rect6" />
  <g
     transform="translate(116.0,115.5) rotate(0 75.0 17.5)"
     id="g8">
    <defs
       id="defs10">
      <linearGradient
         id="g0"
         x1="50%"
         y1="-25%"
         x2="50%"
         y2="100%">
        <stop
           stop-color="white"
           offset="0%"
           id="stop13" />
        <stop
           stop-color="#6ccff7"
           offset="100%"
           id="stop15" />
      </linearGradient>
    </defs>
    <g
       transform="translate(8.0,8.0)"
       id="g17">
      <path
         d="M140.0,0 Q150.0,0 150.0,10 L150.0,25.0 Q150.0,35.0 140.0,35.0 L10,35.0 Q0,35.0 0,25.0 L0,10 Q0,0 10,0 Z"
         stroke="#A8A8A8"
         stroke-width="0"
         stroke-opacity=".6"
         fill-opacity=".6"
         fill="#A8A8A8"
         id="path19" />
    </g>
    <path
       d="M140.0,0 Q150.0,0 150.0,10 L150.0,25.0 Q150.0,35.0 140.0,35.0 L10,35.0 Q0,35.0 0,25.0 L0,10 Q0,0 10,0 Z"
       stroke="#6ccff7"
       stroke-width="2"
       style="fill:url(#g0)"
       id="path21" />
    <g
       transform="translate(0.0,22.5)"
       id="g23">
      <text
         text-rendering="auto"
         font-size="12px"
         x="75.0"
         style="text-anchor: middle"
         y="-2.0"
         id="text25">
        <tspan
           id="tspan27">
          <tspan
             font-size="12"
             font-family="Arial"
             fill="#000000"
             id="tspan29">Python specification</tspan>
        </tspan>
      </text>
    </g>
  </g>
  <g
     transform="translate(206.5,205.5) rotate(0 90.0 17.5)"
     id="g31">
    <defs
       id="defs33">
      <linearGradient
         id="g1"
         x1="50%"
         y1="-25%"
         x2="50%"
         y2="100%">
        <stop
           stop-color="white"
           offset="0%"
           id="stop36" />
        <stop
           stop-color="#81ca9d"
           offset="100%"
           id="stop38" />
      </linearGradient>
    </defs>
    <g
       transform="translate(8.0,8.0)"
       id="g40">
      <path
         d="M170.0,0 Q180.0,0 180.0,10 L180.0,25.0 Q180.0,35.0 170.0,35.0 L10,35.0 Q0,35.0 0,25.0 L0,10 Q0,0 10,0 Z"
         stroke="#A8A8A8"
         stroke-width="0"
         stroke-opacity=".6"
         fill-opacity=".6"
         fill="#A8A8A8"
         id="path42" />
    </g>
    <path
       d="M170.0,0 Q180.0,0 180.0,10 L180.0,25.0 Q180.0,35.0 170.0,35.0 L10,35.0 Q0,35.0 0,25.0 L0,10 Q0,0 10,0 Z"
       stroke="#6ccff7"
       stroke-width="2"
       style="fill:url(#g1)"
       id="path44" />
    <g
       transform="translate(0.0,22.5)"
       id="g46">
      <text
         text-rendering="auto"
         font-size="12px"
         x="90.0"
         style="text-anchor: middle"
         y="-2.0"
         id="text48">
        <tspan
           id="tspan50">
          <tspan
             font-size="12"
             font-family="Arial"
             fill="#000000"
             id="tspan52">Platform choice</tspan>
        </tspan>
      </text>
    </g>
  </g>
  <g
     transform="translate(191.0,150.5)"
     id="g54">
    <line
       x1="0.0"
       y1="0.0"
       x2="0.0"
       y2="26.0"
       stroke-dasharray="23, 0"
       stroke="#000000"
       stroke-width="2"
       id="line56" />
    <line
       x1="0.0"
       y1="26.0"
       x2="105.5"
       y2="26.0"
       stroke-dasharray="23, 0"
       stroke="#000000"
       stroke-width="2"
       id="line58" />
    <line
       x1="105.5"
       y1="26.0"
       x2="105.5"
       y2="55.0"
       stroke-dasharray="23, 0"
       stroke="#000000"
       stroke-width="2"
       id="line60" />
    <g
       transform="translate(52.75,26.0)"
       id="g62" />
  </g>
  <g
     transform="translate(244.0,242.0)"
     id="g64">
    <line
       x1="0.0"
       y1="0.0"
       x2="0.0"
       y2="72.0"
       stroke-dasharray="23, 0"
       stroke="#000000"
       stroke-width="2"
       id="line66" />
    <line
       x1="0.0"
       y1="72.0"
       x2="-1.05000000000001"
       y2="72.0"
       stroke-dasharray="23, 0"
       stroke="#000000"
       stroke-width="2"
       id="line68" />
    <g
       transform="translate(0.0,36.0)"
       id="g70" />
  </g>
  <g
     transform="translate(279.0,241.0)"
     id="g72">
    <line
       x1="0.0"
       y1="0.0"
       x2="0.0"
       y2="69.0"
       stroke-dasharray="23, 0"
       stroke="#000000"
       stroke-width="2"
       id="line74" />
    <line
       x1="0.0"
       y1="69.0"
       x2="1.94999999999999"
       y2="69.0"
       stroke-dasharray="23, 0"
       stroke="#000000"
       stroke-width="2"
       id="line76" />
    <g
       transform="translate(0.0,34.5)"
       id="g78" />
  </g>
  <g
     transform="translate(376.0,242.0)"
     id="g80">
    <line
       x1="0.0"
       y1="0.0"
       x2="0.0"
       y2="67.0"
       stroke-dasharray="23, 0"
       stroke="#000000"
       stroke-width="2"
       id="line82" />
    <line
       x1="0.0"
       y1="67.0"
       x2="2.94999999999999"
       y2="67.0"
       stroke-dasharray="23, 0"
       stroke="#000000"
       stroke-width="2"
       id="line84" />
    <g
       transform="translate(0.0,33.5)"
       id="g86" />
  </g>
  <g
     transform="translate(196.5,395.0) rotate(0 62.5 20.0)"
     id="g88">
    <defs
       id="defs90">
      <linearGradient
         id="g6"
         x1="50%"
         y1="-25%"
         x2="50%"
         y2="100%">
        <stop
           stop-color="white"
           offset="0%"
           id="stop93" />
        <stop
           stop-color="#81ca9d"
           offset="100%"
           id="stop95" />
      </linearGradient>
    </defs>
    <g
       transform="translate(8.0,8.0)"
       id="g97">
      <path
         d="M115.0,0 Q125.0,0 125.0,10 L125.0,30.0 Q125.0,40.0 115.0,40.0 L10,40.0 Q0,40.0 0,30.0 L0,10 Q0,0 10,0 Z"
         stroke="#A8A8A8"
         stroke-width="0"
         stroke-opacity=".6"
         fill-opacity=".6"
         fill="#A8A8A8"
         id="path99" />
    </g>
    <path
       d="M115.0,0 Q125.0,0 125.0,10 L125.0,30.0 Q125.0,40.0 115.0,40.0 L10,40.0 Q0,40.0 0,30.0 L0,10 Q0,0 10,0 Z"
       stroke="#6ccff7"
       stroke-width="2"
       style="fill:url(#g6)"
       id="path101" />
    <g
       transform="translate(0.0,17.0)"
       id="g103">
      <text
         text-rendering="auto"
         font-size="12px"
         x="62.5"
         style="text-anchor: middle"
         y="-2.0"
         id="text105">
        <tspan
           id="tspan107">
          <tspan
             font-size="12"
             font-family="Arial"
             fill="#000000"
             id="tspan109">Garbage collection</tspan>
        </tspan>
      </text>
      <text
         text-rendering="auto"
         font-size="12px"
         x="62.5"
         style="text-anchor: middle"
         y="12.8"
         id="text111">
        <tspan
           id="tspan113">
          <tspan
             font-size="12"
             font-family="Arial"
             fill="#000000"
             id="tspan115"> strategy</tspan>
        </tspan>
      </text>
    </g>
  </g>
  <g
     transform="translate(211.0,270.5) rotate(0 15.0 7.5)"
     id="g117">
    <g
       transform="translate(0.0,12.5)"
       id="g119">
      <text
         text-rendering="auto"
         font-size="12px"
         x="15.0"
         style="text-anchor: middle"
         y="-2.0"
         id="text121">
        <tspan
           id="tspan123">
          <tspan
             font-size="12"
             font-family="Arial"
             fill="#000000"
             id="tspan125">C</tspan>
        </tspan>
      </text>
    </g>
  </g>
  <g
     transform="translate(226.5,262.0) rotate(0 77.5 12.0)"
     id="g127">
    <g
       transform="translate(0.0,17.0)"
       id="g129">
      <text
         text-rendering="auto"
         font-size="12px"
         x="77.5"
         style="text-anchor: middle"
         y="-2.0"
         id="text131">
        <tspan
           id="tspan133">
          <tspan
             font-size="12"
             font-family="Arial"
             fill="#000000"
             id="tspan135">LLVM</tspan>
        </tspan>
      </text>
    </g>
  </g>
  <g
     transform="translate(381.5,270.5) rotate(0 22.5 7.5)"
     id="g137">
    <g
       transform="translate(0.0,12.5)"
       id="g139">
      <text
         text-rendering="auto"
         font-size="12px"
         x="22.5"
         style="text-anchor: middle"
         y="-2.0"
         id="text141">
        <tspan
           id="tspan143">
          <tspan
             font-size="12"
             font-family="Arial"
             fill="#000000"
             id="tspan145">JVM</tspan>
        </tspan>
      </text>
    </g>
  </g>
  <g
     transform="translate(176.0,295.5) rotate(0 125.0 22.5)"
     id="g147">
    <defs
       id="defs149">
      <linearGradient
         id="g10"
         x1="50%"
         y1="-25%"
         x2="50%"
         y2="100%">
        <stop
           stop-color="white"
           offset="0%"
           id="stop152" />
        <stop
           stop-color="#81ca9d"
           offset="100%"
           id="stop154" />
      </linearGradient>
    </defs>
    <g
       transform="translate(8.0,8.0)"
       id="g156">
      <path
         d="M240.0,0 Q250.0,0 250.0,10 L250.0,35.0 Q250.0,45.0 240.0,45.0 L10,45.0 Q0,45.0 0,35.0 L0,10 Q0,0 10,0 Z"
         stroke="#A8A8A8"
         stroke-width="0"
         stroke-opacity=".6"
         fill-opacity=".6"
         fill="#A8A8A8"
         id="path158" />
    </g>
    <path
       d="M240.0,0 Q250.0,0 250.0,10 L250.0,35.0 Q250.0,45.0 240.0,45.0 L10,45.0 Q0,45.0 0,35.0 L0,10 Q0,0 10,0 Z"
       stroke="#6ccff7"
       stroke-width="2"
       style="fill:url(#g10)"
       id="path160" />
    <g
       transform="translate(0.0,27.5)"
       id="g162">
      <text
         text-rendering="auto"
         font-size="12px"
         x="125.0"
         style="text-anchor: middle"
         y="-2.0"
         id="text164">
        <tspan
           id="tspan166">
          <tspan
             font-size="12"
             font-family="Arial"
             fill="#000000"
             id="tspan168">Just in time compiler generation</tspan>
        </tspan>
      </text>
    </g>
  </g>
  <g
     transform="translate(232.0,338.0)"
     id="g170">
    <line
       x1="0"
       y1="0"
       x2="0"
       y2="56"
       stroke-dasharray="23, 0"
       stroke="#000000"
       stroke-width="2"
       id="line172" />
    <g
       transform="translate(0.0,33.0)"
       id="g174" />
  </g>
  <g
     transform="translate(258.0,339.0)"
     id="g176">
    <line
       x1="0"
       y1="0"
       x2="0"
       y2="54"
       stroke-dasharray="23, 0"
       stroke="#000000"
       stroke-width="2"
       id="line178" />
    <g
       transform="translate(0.0,32.0)"
       id="g180" />
  </g>
  <g
     transform="translate(294.0,342.0)"
     id="g182">
    <line
       x1="0"
       y1="0"
       x2="0"
       y2="52"
       stroke-dasharray="23, 0"
       stroke="#000000"
       stroke-width="2"
       id="line184" />
    <g
       transform="translate(0.0,31.0)"
       id="g186" />
  </g>
  <g
     transform="translate(361.0,342.0)"
     id="g188">
    <line
       x1="0"
       y1="0"
       x2="0"
       y2="154"
       stroke-dasharray="23, 0"
       stroke="#000000"
       stroke-width="2"
       id="line190" />
    <g
       transform="translate(0.0,82.0)"
       id="g192" />
  </g>
  <g
     transform="translate(25.5,643.0) rotate(0 72.5 20.0)"
     id="g194">
    <defs
       id="defs196">
      <linearGradient
         id="g15"
         x1="50%"
         y1="-25%"
         x2="50%"
         y2="100%">
        <stop
           stop-color="white"
           offset="0%"
           id="stop199" />
        <stop
           stop-color="#fff799"
           offset="100%"
           id="stop201" />
      </linearGradient>
    </defs>
    <g
       transform="translate(8.0,8.0)"
       id="g203">
      <path
         d="M135.0,0 Q145.0,0 145.0,10 L145.0,30.0 Q145.0,40.0 135.0,40.0 L10,40.0 Q0,40.0 0,30.0 L0,10 Q0,0 10,0 Z"
         stroke="#A8A8A8"
         stroke-width="0"
         stroke-opacity=".6"
         fill-opacity=".6"
         fill="#A8A8A8"
         id="path205" />
    </g>
    <path
       d="M135.0,0 Q145.0,0 145.0,10 L145.0,30.0 Q145.0,40.0 135.0,40.0 L10,40.0 Q0,40.0 0,30.0 L0,10 Q0,0 10,0 Z"
       stroke="#fff799"
       stroke-width="2"
       style="fill:url(#g15)"
       id="path207" />
    <g
       transform="translate(0.0,25.0)"
       id="g209">
      <text
         text-rendering="auto"
         font-size="12px"
         x="72.5"
         style="text-anchor: middle"
         y="-2.0"
         id="text211">
        <tspan
           id="tspan213">
          <tspan
             font-size="12"
             font-family="Arial"
             fill="#000000"
             id="tspan215">Python on JVM with JIT</tspan>
        </tspan>
      </text>
    </g>
  </g>
  <g
     transform="translate(98.05000000000001,643.05)"
     id="g217">
    <line
       x1="0"
       y1="0"
       x2="83.95"
       y2="-139.05"
       stroke-dasharray="23, 0"
       stroke="#000000"
       stroke-width="2"
       id="line219" />
    <g
       transform="translate(35.53577294715256,-70.96422705284745)"
       id="g221" />
  </g>
  <g
     transform="translate(171.0,585.0) rotate(0 80.0 25.0)"
     id="g223">
    <defs
       id="defs225">
      <linearGradient
         id="linearGradient227"
         x1="50%"
         y1="-25%"
         x2="50%"
         y2="100%">
        <stop
           stop-color="white"
           offset="0%"
           id="stop229" />
        <stop
           stop-color="#fff799"
           offset="100%"
           id="stop231" />
      </linearGradient>
    </defs>
    <g
       transform="translate(8.0,8.0)"
       id="g233">
      <path
         d="M150.0,0 Q160.0,0 160.0,10 L160.0,40.0 Q160.0,50.0 150.0,50.0 L10,50.0 Q0,50.0 0,40.0 L0,10 Q0,0 10,0 Z"
         stroke="#A8A8A8"
         stroke-width="0"
         stroke-opacity=".6"
         fill-opacity=".6"
         fill="#A8A8A8"
         id="path235" />
    </g>
    <path
       d="M150.0,0 Q160.0,0 160.0,10 L160.0,40.0 Q160.0,50.0 150.0,50.0 L10,50.0 Q0,50.0 0,40.0 L0,10 Q0,0 10,0 Z"
       stroke="#fff799"
       stroke-width="2"
       style="fill:url(#linearGradient3607);fill-opacity:1"
       id="path237" />
    <g
       transform="translate(0.0,15.0)"
       id="g239">
      <text
         text-rendering="auto"
         font-size="12px"
         x="80.0"
         style="text-anchor: middle"
         y="-2.0"
         id="text241">
        <tspan
           id="tspan243">
          <tspan
             font-size="12"
             font-family="Arial"
             fill="#000000"
             id="tspan245">JavaScript running on</tspan>
        </tspan>
      </text>
      <text
         text-rendering="auto"
         font-size="12px"
         x="80.0"
         style="text-anchor: middle"
         y="12.8"
         id="text247">
        <tspan
           id="tspan249">
          <tspan
             font-size="12"
             font-family="Arial"
             fill="#000000"
             id="tspan251"> Maemo with Mark </tspan>
          <tspan
             font-size="12"
             font-family="Arial"
             fill="#000000"
             id="tspan253">&amp;</tspan>
          <tspan
             font-size="12"
             font-family="Arial"
             fill="#000000"
             id="tspan255" />
        </tspan>
      </text>
      <text
         text-rendering="auto"
         font-size="12px"
         x="80.0"
         style="text-anchor: middle"
         y="27.6"
         id="text257">
        <tspan
           id="tspan259">
          <tspan
             font-size="12"
             font-family="Arial"
             fill="#000000"
             id="tspan261"> Compact GC</tspan>
        </tspan>
      </text>
    </g>
  </g>
  <g
     transform="translate(251.0,585.0)"
     id="g263">
    <line
       x1="0"
       y1="0"
       x2="-18.05"
       y2="-80"
       stroke-dasharray="23, 0"
       stroke="#000000"
       stroke-width="2"
       id="line265" />
    <g
       transform="translate(-9.1476049163841,-35.0)"
       id="g267" />
  </g>
  <g
     transform="translate(306.0,665.0) rotate(0 80.0 20.0)"
     id="g269">
    <defs
       id="defs271">
      <linearGradient
         id="g19"
         x1="50%"
         y1="-25%"
         x2="50%"
         y2="100%">
        <stop
           stop-color="white"
           offset="0%"
           id="stop274" />
        <stop
           stop-color="#fff799"
           offset="100%"
           id="stop276" />
      </linearGradient>
    </defs>
    <g
       transform="translate(8.0,8.0)"
       id="g278">
      <path
         d="M150.0,0 Q160.0,0 160.0,10 L160.0,30.0 Q160.0,40.0 150.0,40.0 L10,40.0 Q0,40.0 0,30.0 L0,10 Q0,0 10,0 Z"
         stroke="#A8A8A8"
         stroke-width="0"
         stroke-opacity=".6"
         fill-opacity=".6"
         fill="#A8A8A8"
         id="path280" />
    </g>
    <path
       d="M150.0,0 Q160.0,0 160.0,10 L160.0,30.0 Q160.0,40.0 150.0,40.0 L10,40.0 Q0,40.0 0,30.0 L0,10 Q0,0 10,0 Z"
       stroke="#fff799"
       stroke-width="2"
       style="fill:url(#g19)"
       id="path282" />
    <g
       transform="translate(0.0,17.0)"
       id="g284">
      <text
         text-rendering="auto"
         font-size="12px"
         x="80.0"
         style="text-anchor: middle"
         y="-2.0"
         id="text286">
        <tspan
           id="tspan288">
          <tspan
             font-size="12"
             font-family="Arial"
             fill="#000000"
             id="tspan290">Python with stackless and</tspan>
        </tspan>
      </text>
      <text
         text-rendering="auto"
         font-size="12px"
         x="80.0"
         style="text-anchor: middle"
         y="12.8"
         id="text292">
        <tspan
           id="tspan294">
          <tspan
             font-size="12"
             font-family="Arial"
             fill="#000000"
             id="tspan296"> JIT on top of C/POSIX</tspan>
        </tspan>
      </text>
    </g>
  </g>
  <g
     transform="translate(386.0,665.0)"
     id="g298">
    <line
       x1="0"
       y1="0"
       x2="-65.05"
       y2="-160"
       stroke-dasharray="23, 0"
       stroke="#000000"
       stroke-width="2"
       id="line300" />
    <g
       transform="translate(-32.89317200659442,-75.0)"
       id="g302" />
  </g>
  <g
     transform="translate(396.95,503.04999999999995)"
     id="g304">
    <line
       x1="0"
       y1="0"
       x2="92.05"
       y2="97.45"
       stroke-dasharray="6, 12"
       stroke="#000000"
       stroke-width="2"
       id="line306" />
    <g
       transform="translate(44.6598071527549,53.725)"
       id="g308" />
  </g>
  <g
     transform="translate(401.5,600.5) rotate(0 87.5 22.5)"
     id="g310">
    <defs
       id="defs312">
      <linearGradient
         id="g22"
         x1="50%"
         y1="-25%"
         x2="50%"
         y2="100%">
        <stop
           stop-color="white"
           offset="0%"
           id="stop315" />
        <stop
           stop-color="#fff799"
           offset="100%"
           id="stop317" />
      </linearGradient>
    </defs>
    <g
       transform="translate(8.0,8.0)"
       id="g319">
      <path
         d="M165.0,0 Q175.0,0 175.0,10 L175.0,35.0 Q175.0,45.0 165.0,45.0 L10,45.0 Q0,45.0 0,35.0 L0,10 Q0,0 10,0 Z"
         stroke="#A8A8A8"
         stroke-width="0"
         stroke-opacity=".6"
         fill-opacity=".6"
         fill="#A8A8A8"
         id="path321" />
    </g>
    <path
       d="M165.0,0 Q175.0,0 175.0,10 L175.0,35.0 Q175.0,45.0 165.0,45.0 L10,45.0 Q0,45.0 0,35.0 L0,10 Q0,0 10,0 Z"
       stroke="#fff799"
       stroke-width="2"
       style="fill:url(#g22)"
       id="path323" />
    <g
       transform="translate(0.0,19.5)"
       id="g325">
      <text
         text-rendering="auto"
         font-size="12px"
         x="87.5"
         style="text-anchor: middle"
         y="-2.0"
         id="text327">
        <tspan
           id="tspan329">
          <tspan
             font-size="12"
             font-family="Arial"
             fill="#000000"
             id="tspan331">Dynamic language X just the</tspan>
        </tspan>
      </text>
      <text
         text-rendering="auto"
         font-size="12px"
         x="87.5"
         style="text-anchor: middle"
         y="12.8"
         id="text333">
        <tspan
           id="tspan335">
          <tspan
             font-size="12"
             font-family="Arial"
             fill="#000000"
             id="tspan337"> way you like it</tspan>
        </tspan>
      </text>
    </g>
  </g>
  <g
     transform="translate(316.0,115.5) rotate(0 72.5 15.0)"
     id="g339">
    <defs
       id="defs341">
      <linearGradient
         id="linearGradient343"
         x1="50%"
         y1="-25%"
         x2="50%"
         y2="100%">
        <stop
           stop-color="white"
           offset="0%"
           id="stop345" />
        <stop
           stop-color="#6ccff7"
           offset="100%"
           id="stop347" />
      </linearGradient>
    </defs>
    <g
       transform="translate(8.0,8.0)"
       id="g349">
      <path
         d="M135.0,0 Q145.0,0 145.0,10 L145.0,20.0 Q145.0,30.0 135.0,30.0 L10,30.0 Q0,30.0 0,20.0 L0,10 Q0,0 10,0 Z"
         stroke="#A8A8A8"
         stroke-width="0"
         stroke-opacity=".6"
         fill-opacity=".6"
         fill="#A8A8A8"
         id="path351" />
    </g>
    <path
       d="M135.0,0 Q145.0,0 145.0,10 L145.0,20.0 Q145.0,30.0 135.0,30.0 L10,30.0 Q0,30.0 0,20.0 L0,10 Q0,0 10,0 Z"
       stroke="#6ccff7"
       stroke-width="2"
       style="fill:url(#linearGradient3599);fill-opacity:1"
       id="path353" />
    <g
       transform="translate(0.0,20.0)"
       id="g355">
      <text
         text-rendering="auto"
         font-size="12px"
         x="72.5"
         style="text-anchor: middle"
         y="-2.0"
         id="text357">
        <tspan
           id="tspan359">
          <tspan
             font-size="12"
             font-family="Arial"
             fill="#000000"
             id="tspan361">JavaScript specification</tspan>
        </tspan>
      </text>
    </g>
  </g>
  <g
     transform="translate(388.5,145.5)"
     id="g363">
    <line
       x1="0.0"
       y1="0.0"
       x2="0.0"
       y2="15.0"
       stroke-dasharray="23, 0"
       stroke="#000000"
       stroke-width="2"
       id="line365" />
    <line
       x1="0.0"
       y1="15.0"
       x2="-92.0"
       y2="15.0"
       stroke-dasharray="23, 0"
       stroke="#000000"
       stroke-width="2"
       id="line367" />
    <line
       x1="-92.0"
       y1="15.0"
       x2="-92.0"
       y2="60.0"
       stroke-dasharray="23, 0"
       stroke="#000000"
       stroke-width="2"
       id="line369" />
    <g
       transform="translate(-46.0,15.0)"
       id="g371" />
  </g>
  <g
     transform="translate(431.5,160.5) rotate(0 87.5 12.5)"
     id="g373">
    <defs
       id="defs375">
      <linearGradient
         id="g25"
         x1="50%"
         y1="-25%"
         x2="50%"
         y2="100%">
        <stop
           stop-color="white"
           offset="0%"
           id="stop378" />
        <stop
           stop-color="#6ccff7"
           offset="100%"
           id="stop380" />
      </linearGradient>
    </defs>
    <g
       transform="translate(8.0,8.0)"
       id="g382">
      <path
         d="M165.0,0 Q175.0,0 175.0,10 L175.0,15.0 Q175.0,25.0 165.0,25.0 L10,25.0 Q0,25.0 0,15.0 L0,10 Q0,0 10,0 Z"
         stroke="#A8A8A8"
         stroke-width="0"
         stroke-opacity=".6"
         fill-opacity=".6"
         fill="#A8A8A8"
         id="path384" />
    </g>
    <path
       d="M165.0,0 Q175.0,0 175.0,10 L175.0,15.0 Q175.0,25.0 165.0,25.0 L10,25.0 Q0,25.0 0,15.0 L0,10 Q0,0 10,0 Z"
       stroke="#6ccff7"
       stroke-width="2"
       style="fill:url(#g25)"
       id="path386" />
    <g
       transform="translate(0.0,17.5)"
       id="g388">
      <text
         text-rendering="auto"
         font-size="12px"
         x="87.5"
         style="text-anchor: middle"
         y="-2.0"
         id="text390">
        <tspan
           id="tspan392">
          <tspan
             font-size="12"
             font-family="Arial"
             fill="#000000"
             id="tspan394">KitchenSink implementation</tspan>
        </tspan>
      </text>
    </g>
  </g>
  <g
     transform="translate(296.5,205.5)"
     id="g396">
    <line
       x1="0.0"
       y1="0.0"
       x2="0.0"
       y2="-15.0"
       stroke-dasharray="23, 0"
       stroke="#000000"
       stroke-width="2"
       id="line398" />
    <line
       x1="0.0"
       y1="-15.0"
       x2="222.5"
       y2="-15.0"
       stroke-dasharray="23, 0"
       stroke="#000000"
       stroke-width="2"
       id="line400" />
    <line
       x1="222.5"
       y1="-15.0"
       x2="222.5"
       y2="-20.0"
       stroke-dasharray="23, 0"
       stroke="#000000"
       stroke-width="2"
       id="line402" />
    <g
       transform="translate(111.25,-15.0)"
       id="g404" />
  </g>
  <g
     transform="translate(146.5,490.5) rotate(0 162.5 7.5)"
     id="g406">
    <defs
       id="defs408">
      <linearGradient
         id="g27"
         x1="50%"
         y1="-25%"
         x2="50%"
         y2="100%">
        <stop
           stop-color="white"
           offset="0%"
           id="stop411" />
        <stop
           stop-color="#FDC68C"
           offset="100%"
           id="stop413" />
      </linearGradient>
    </defs>
    <g
       transform="translate(8.0,8.0)"
       id="g415">
      <rect
         width="325.0"
         height="15.0"
         stroke="#A8A8A8"
         stroke-width="0"
         stroke-opacity=".6"
         fill-opacity=".6"
         fill="#A8A8A8"
         id="rect417" />
    </g>
    <rect
       width="325.0"
       height="15.0"
       stroke="#f7941d"
       stroke-width="2"
       style="fill:url(#g27)"
       id="rect419" />
    <g
       id="g421" />
  </g>
  <g
     transform="translate(233.95,436.0)"
     id="g423">
    <line
       x1="0"
       y1="0"
       x2="-3"
       y2="56"
       stroke-dasharray="23, 0"
       stroke="#000000"
       stroke-width="2"
       id="line425" />
    <g
       transform="translate(-6.514318677299112,27.985681322700884)"
       id="g427" />
  </g>
  <g
     transform="translate(259.0,435.0)"
     id="g429">
    <line
       x1="0"
       y1="0"
       x2="-0.0500000000000114"
       y2="60"
       stroke-dasharray="23, 0"
       stroke="#000000"
       stroke-width="2"
       id="line431" />
    <g
       transform="translate(-5.025003472220419,29.999996527779587)"
       id="g433" />
  </g>
  <g
     transform="translate(282.95,433.0)"
     id="g435">
    <line
       x1="0"
       y1="0"
       x2="0"
       y2="60"
       stroke-dasharray="23, 0"
       stroke="#000000"
       stroke-width="2"
       id="line437" />
    <g
       transform="translate(0.0,35.0)"
       id="g439" />
  </g>
  <g
     transform="translate(309.95,435.0)"
     id="g441">
    <line
       x1="0"
       y1="0"
       x2="11"
       y2="56"
       stroke-dasharray="23, 0"
       stroke="#000000"
       stroke-width="2"
       id="line443" />
    <g
       transform="translate(5.406244102605436,33.0)"
       id="g445" />
  </g>
</svg>
